<mxfile host="app.diagrams.net" modified="2021-12-12T09:14:17.960Z" agent="5.0 (Windows NT 10.0; Win64; x64) AppleWebKit/537.36 (KHTML, like Gecko) Chrome/96.0.4664.55 Safari/537.36 Edg/96.0.1054.43" etag="ngW0dx6WitwLO6pIXLpJ" version="15.9.4" type="github">
  <diagram id="fIiXSZL2rTSmxZ8gm_aO" name="Page-1">
    <mxGraphModel dx="1713" dy="1129" grid="1" gridSize="10" guides="1" tooltips="1" connect="1" arrows="1" fold="1" page="1" pageScale="1" pageWidth="827" pageHeight="1169" math="0" shadow="0">
      <root>
        <mxCell id="0" />
        <mxCell id="1" parent="0" />
        <mxCell id="EC653Ei61_t5FoVVHQ31-1" value="入库业务流程图" style="text;html=1;strokeColor=none;fillColor=none;align=center;verticalAlign=middle;whiteSpace=wrap;rounded=0;fontSize=20;fontStyle=1" vertex="1" parent="1">
          <mxGeometry x="630" y="20" width="169" height="30" as="geometry" />
        </mxCell>
        <mxCell id="EC653Ei61_t5FoVVHQ31-3" value="" style="ellipse;html=1;shape=startState;fillColor=#000000;strokeColor=#ff0000;fontSize=20;" vertex="1" parent="1">
          <mxGeometry x="40" y="60" width="30" height="30" as="geometry" />
        </mxCell>
        <mxCell id="EC653Ei61_t5FoVVHQ31-4" value="" style="edgeStyle=orthogonalEdgeStyle;html=1;verticalAlign=bottom;endArrow=open;endSize=8;strokeColor=#ff0000;rounded=0;fontSize=20;entryX=0;entryY=0.5;entryDx=0;entryDy=0;" edge="1" source="EC653Ei61_t5FoVVHQ31-3" parent="1" target="EC653Ei61_t5FoVVHQ31-9">
          <mxGeometry relative="1" as="geometry">
            <mxPoint x="85" y="220" as="targetPoint" />
            <Array as="points">
              <mxPoint x="60" y="225" />
            </Array>
          </mxGeometry>
        </mxCell>
        <mxCell id="EC653Ei61_t5FoVVHQ31-12" value="" style="edgeStyle=orthogonalEdgeStyle;rounded=0;orthogonalLoop=1;jettySize=auto;html=1;fontSize=20;" edge="1" parent="1" source="EC653Ei61_t5FoVVHQ31-9" target="EC653Ei61_t5FoVVHQ31-11">
          <mxGeometry relative="1" as="geometry" />
        </mxCell>
        <mxCell id="EC653Ei61_t5FoVVHQ31-9" value="&lt;font style=&quot;font-size: 20px&quot;&gt;接收OMS订单&lt;/font&gt;" style="rounded=1;whiteSpace=wrap;html=1;arcSize=40;fontColor=#000000;fillColor=#ffffc0;strokeColor=#ff0000;fontSize=20;" vertex="1" parent="1">
          <mxGeometry x="130" y="190" width="162.5" height="70" as="geometry" />
        </mxCell>
        <mxCell id="EC653Ei61_t5FoVVHQ31-14" value="" style="edgeStyle=orthogonalEdgeStyle;rounded=0;orthogonalLoop=1;jettySize=auto;html=1;fontSize=20;" edge="1" parent="1" source="EC653Ei61_t5FoVVHQ31-11" target="EC653Ei61_t5FoVVHQ31-13">
          <mxGeometry relative="1" as="geometry" />
        </mxCell>
        <mxCell id="EC653Ei61_t5FoVVHQ31-11" value="&lt;font style=&quot;font-size: 20px&quot;&gt;进行预约&lt;/font&gt;" style="rounded=1;whiteSpace=wrap;html=1;arcSize=40;fontColor=#000000;fillColor=#ffffc0;strokeColor=#ff0000;fontSize=20;" vertex="1" parent="1">
          <mxGeometry x="370" y="190" width="162.5" height="70" as="geometry" />
        </mxCell>
        <mxCell id="EC653Ei61_t5FoVVHQ31-22" value="" style="edgeStyle=orthogonalEdgeStyle;rounded=0;orthogonalLoop=1;jettySize=auto;html=1;fontSize=20;fontColor=none;entryX=0.515;entryY=0.065;entryDx=0;entryDy=0;entryPerimeter=0;" edge="1" parent="1" source="EC653Ei61_t5FoVVHQ31-13" target="EC653Ei61_t5FoVVHQ31-21">
          <mxGeometry relative="1" as="geometry" />
        </mxCell>
        <mxCell id="EC653Ei61_t5FoVVHQ31-13" value="&lt;font style=&quot;font-size: 20px&quot;&gt;查询订单明细&lt;/font&gt;" style="rounded=1;whiteSpace=wrap;html=1;arcSize=40;fontColor=#000000;fillColor=#ffffc0;strokeColor=#ff0000;fontSize=20;" vertex="1" parent="1">
          <mxGeometry x="581" y="190" width="162.5" height="70" as="geometry" />
        </mxCell>
        <mxCell id="EC653Ei61_t5FoVVHQ31-15" value="" style="ellipse;html=1;shape=endState;fillColor=#000000;strokeColor=#ff0000;fontSize=20;" vertex="1" parent="1">
          <mxGeometry x="40" y="1060" width="30" height="30" as="geometry" />
        </mxCell>
        <mxCell id="EC653Ei61_t5FoVVHQ31-23" style="edgeStyle=orthogonalEdgeStyle;rounded=0;orthogonalLoop=1;jettySize=auto;html=1;fontSize=13;fontColor=none;exitX=0.5;exitY=1;exitDx=0;exitDy=0;entryX=0.5;entryY=0;entryDx=0;entryDy=0;" edge="1" parent="1" source="EC653Ei61_t5FoVVHQ31-21" target="EC653Ei61_t5FoVVHQ31-57">
          <mxGeometry relative="1" as="geometry">
            <mxPoint x="661.25" y="500" as="targetPoint" />
          </mxGeometry>
        </mxCell>
        <mxCell id="EC653Ei61_t5FoVVHQ31-25" style="edgeStyle=orthogonalEdgeStyle;rounded=0;orthogonalLoop=1;jettySize=auto;html=1;fontSize=13;fontColor=none;" edge="1" parent="1" source="EC653Ei61_t5FoVVHQ31-21">
          <mxGeometry relative="1" as="geometry">
            <mxPoint x="550" y="230" as="targetPoint" />
          </mxGeometry>
        </mxCell>
        <mxCell id="EC653Ei61_t5FoVVHQ31-21" value="&lt;font style=&quot;font-size: 15px&quot;&gt;判断当前明细&lt;br&gt;是否收货完成&lt;/font&gt;" style="rhombus;whiteSpace=wrap;html=1;fontSize=20;fillColor=#ffffc0;strokeColor=#ff0000;fontColor=#000000;rounded=1;arcSize=40;" vertex="1" parent="1">
          <mxGeometry x="601.88" y="300" width="118.75" height="130" as="geometry" />
        </mxCell>
        <mxCell id="EC653Ei61_t5FoVVHQ31-24" value="&lt;font style=&quot;font-size: 20px&quot;&gt;否&lt;/font&gt;" style="text;html=1;align=center;verticalAlign=middle;resizable=0;points=[];autosize=1;strokeColor=none;fillColor=none;fontSize=13;fontColor=none;" vertex="1" parent="1">
          <mxGeometry x="615" y="460" width="40" height="20" as="geometry" />
        </mxCell>
        <mxCell id="EC653Ei61_t5FoVVHQ31-26" value="&lt;font style=&quot;font-size: 20px&quot;&gt;是&lt;/font&gt;" style="text;html=1;align=center;verticalAlign=middle;resizable=0;points=[];autosize=1;strokeColor=none;fillColor=none;fontSize=13;fontColor=none;" vertex="1" parent="1">
          <mxGeometry x="545" y="310" width="40" height="20" as="geometry" />
        </mxCell>
        <mxCell id="EC653Ei61_t5FoVVHQ31-34" style="edgeStyle=orthogonalEdgeStyle;rounded=0;orthogonalLoop=1;jettySize=auto;html=1;fontSize=14;fontColor=none;entryX=0.5;entryY=0;entryDx=0;entryDy=0;exitX=0.5;exitY=1;exitDx=0;exitDy=0;" edge="1" parent="1" source="EC653Ei61_t5FoVVHQ31-57" target="EC653Ei61_t5FoVVHQ31-35">
          <mxGeometry relative="1" as="geometry">
            <mxPoint x="661.25" y="630" as="targetPoint" />
            <mxPoint x="661.3" y="570" as="sourcePoint" />
          </mxGeometry>
        </mxCell>
        <mxCell id="EC653Ei61_t5FoVVHQ31-39" style="edgeStyle=orthogonalEdgeStyle;rounded=0;orthogonalLoop=1;jettySize=auto;html=1;entryX=1;entryY=0.5;entryDx=0;entryDy=0;fontSize=14;fontColor=none;exitX=0;exitY=0.5;exitDx=0;exitDy=0;" edge="1" parent="1" source="EC653Ei61_t5FoVVHQ31-57" target="EC653Ei61_t5FoVVHQ31-36">
          <mxGeometry relative="1" as="geometry">
            <mxPoint x="580" y="535" as="sourcePoint" />
          </mxGeometry>
        </mxCell>
        <mxCell id="EC653Ei61_t5FoVVHQ31-41" style="edgeStyle=orthogonalEdgeStyle;rounded=0;orthogonalLoop=1;jettySize=auto;html=1;fontSize=14;fontColor=none;exitX=0.5;exitY=1;exitDx=0;exitDy=0;" edge="1" parent="1" source="EC653Ei61_t5FoVVHQ31-59">
          <mxGeometry relative="1" as="geometry">
            <mxPoint x="921.25" y="400" as="targetPoint" />
            <mxPoint x="921.3" y="260" as="sourcePoint" />
          </mxGeometry>
        </mxCell>
        <mxCell id="EC653Ei61_t5FoVVHQ31-31" value="&lt;font style=&quot;font-size: 20px&quot;&gt;转入上架&lt;/font&gt;" style="text;html=1;align=center;verticalAlign=middle;resizable=0;points=[];autosize=1;strokeColor=none;fillColor=none;fontSize=14;fontColor=none;" vertex="1" parent="1">
          <mxGeometry x="742" y="365" width="100" height="30" as="geometry" />
        </mxCell>
        <mxCell id="EC653Ei61_t5FoVVHQ31-60" style="edgeStyle=orthogonalEdgeStyle;rounded=0;orthogonalLoop=1;jettySize=auto;html=1;entryX=0;entryY=0.5;entryDx=0;entryDy=0;fontSize=14;fontColor=none;" edge="1" parent="1" source="EC653Ei61_t5FoVVHQ31-35" target="EC653Ei61_t5FoVVHQ31-59">
          <mxGeometry relative="1" as="geometry">
            <Array as="points">
              <mxPoint x="800" y="675" />
              <mxPoint x="800" y="223" />
            </Array>
          </mxGeometry>
        </mxCell>
        <mxCell id="EC653Ei61_t5FoVVHQ31-35" value="&lt;font style=&quot;font-size: 20px&quot;&gt;转入上架，&lt;br&gt;推荐货位&lt;/font&gt;" style="rounded=1;whiteSpace=wrap;html=1;arcSize=40;fontColor=#000000;fillColor=#ffffc0;strokeColor=#ff0000;fontSize=20;" vertex="1" parent="1">
          <mxGeometry x="580" y="640" width="162.5" height="70" as="geometry" />
        </mxCell>
        <mxCell id="EC653Ei61_t5FoVVHQ31-36" value="&lt;font style=&quot;font-size: 20px&quot;&gt;更新收货信息，&lt;br&gt;状态&lt;/font&gt;" style="rounded=1;whiteSpace=wrap;html=1;arcSize=40;fontColor=#000000;fillColor=#ffffc0;strokeColor=#ff0000;fontSize=20;" vertex="1" parent="1">
          <mxGeometry x="130" y="500" width="162.5" height="70" as="geometry" />
        </mxCell>
        <mxCell id="EC653Ei61_t5FoVVHQ31-40" value="&lt;font style=&quot;font-size: 20px&quot;&gt;回写订单收货信息&lt;/font&gt;" style="text;html=1;align=center;verticalAlign=middle;resizable=0;points=[];autosize=1;strokeColor=none;fillColor=none;fontSize=14;fontColor=none;" vertex="1" parent="1">
          <mxGeometry x="345" y="505" width="180" height="30" as="geometry" />
        </mxCell>
        <mxCell id="EC653Ei61_t5FoVVHQ31-43" style="edgeStyle=orthogonalEdgeStyle;rounded=0;orthogonalLoop=1;jettySize=auto;html=1;fontSize=14;fontColor=none;entryX=0;entryY=0.5;entryDx=0;entryDy=0;" edge="1" parent="1" source="EC653Ei61_t5FoVVHQ31-42" target="EC653Ei61_t5FoVVHQ31-44">
          <mxGeometry relative="1" as="geometry">
            <mxPoint x="1160" y="220" as="targetPoint" />
          </mxGeometry>
        </mxCell>
        <mxCell id="EC653Ei61_t5FoVVHQ31-45" style="edgeStyle=orthogonalEdgeStyle;rounded=0;orthogonalLoop=1;jettySize=auto;html=1;fontSize=14;fontColor=none;entryX=0.997;entryY=0.643;entryDx=0;entryDy=0;entryPerimeter=0;" edge="1" parent="1" source="EC653Ei61_t5FoVVHQ31-42" target="EC653Ei61_t5FoVVHQ31-46">
          <mxGeometry relative="1" as="geometry">
            <mxPoint x="970" y="770" as="targetPoint" />
            <Array as="points">
              <mxPoint x="921" y="765" />
            </Array>
          </mxGeometry>
        </mxCell>
        <mxCell id="EC653Ei61_t5FoVVHQ31-42" value="&lt;font&gt;&lt;font style=&quot;font-size: 20px&quot;&gt;提交上架&lt;/font&gt;&lt;br&gt;&lt;/font&gt;" style="rounded=1;whiteSpace=wrap;html=1;arcSize=40;fontColor=#000000;fillColor=#ffffc0;strokeColor=#ff0000;fontSize=20;" vertex="1" parent="1">
          <mxGeometry x="840" y="400" width="162.5" height="70" as="geometry" />
        </mxCell>
        <mxCell id="EC653Ei61_t5FoVVHQ31-82" value="" style="edgeStyle=orthogonalEdgeStyle;rounded=0;orthogonalLoop=1;jettySize=auto;html=1;fontSize=17;fontColor=none;entryX=0.5;entryY=0;entryDx=0;entryDy=0;" edge="1" parent="1" source="EC653Ei61_t5FoVVHQ31-44" target="EC653Ei61_t5FoVVHQ31-87">
          <mxGeometry relative="1" as="geometry">
            <mxPoint x="1281" y="350" as="targetPoint" />
          </mxGeometry>
        </mxCell>
        <mxCell id="EC653Ei61_t5FoVVHQ31-44" value="&lt;font&gt;&lt;font style=&quot;font-size: 20px&quot;&gt;入库&lt;/font&gt;&lt;br&gt;&lt;/font&gt;" style="rounded=1;whiteSpace=wrap;html=1;arcSize=40;fontColor=#000000;fillColor=#ffffc0;strokeColor=#ff0000;fontSize=20;" vertex="1" parent="1">
          <mxGeometry x="1190" y="190" width="162.5" height="70" as="geometry" />
        </mxCell>
        <mxCell id="EC653Ei61_t5FoVVHQ31-64" value="" style="edgeStyle=orthogonalEdgeStyle;rounded=0;orthogonalLoop=1;jettySize=auto;html=1;fontSize=14;fontColor=none;" edge="1" parent="1" source="EC653Ei61_t5FoVVHQ31-46" target="EC653Ei61_t5FoVVHQ31-63">
          <mxGeometry relative="1" as="geometry" />
        </mxCell>
        <mxCell id="EC653Ei61_t5FoVVHQ31-46" value="&lt;font style=&quot;font-size: 20px&quot;&gt;更新上架信息，&lt;br&gt;回写OMS数据&lt;br&gt;&lt;/font&gt;" style="rounded=1;whiteSpace=wrap;html=1;arcSize=40;fontColor=#000000;fillColor=#ffffc0;strokeColor=#ff0000;fontSize=20;" vertex="1" parent="1">
          <mxGeometry x="130" y="720" width="162.5" height="70" as="geometry" />
        </mxCell>
        <mxCell id="EC653Ei61_t5FoVVHQ31-49" value="&lt;font style=&quot;font-size: 20px&quot;&gt;回写上架数据&lt;/font&gt;" style="text;html=1;align=center;verticalAlign=middle;resizable=0;points=[];autosize=1;strokeColor=none;fillColor=none;fontSize=14;fontColor=none;" vertex="1" parent="1">
          <mxGeometry x="580" y="765" width="140" height="30" as="geometry" />
        </mxCell>
        <mxCell id="EC653Ei61_t5FoVVHQ31-57" value="&lt;span style=&quot;font-size: 14px&quot;&gt;输入数量/生产日期&lt;br&gt;等信息&lt;/span&gt;&lt;span style=&quot;font-size: 14px&quot;&gt;提交&lt;/span&gt;" style="shape=parallelogram;perimeter=parallelogramPerimeter;whiteSpace=wrap;html=1;fixedSize=1;fontSize=20;fillColor=#ffffc0;strokeColor=#ff0000;fontColor=#000000;rounded=1;arcSize=40;" vertex="1" parent="1">
          <mxGeometry x="586.24" y="500" width="150" height="70" as="geometry" />
        </mxCell>
        <mxCell id="EC653Ei61_t5FoVVHQ31-59" value="&lt;span style=&quot;font-size: 17px&quot;&gt;输入上架数量、&lt;br&gt;上架货位&lt;/span&gt;" style="shape=parallelogram;perimeter=parallelogramPerimeter;whiteSpace=wrap;html=1;fixedSize=1;fontSize=20;fillColor=#ffffc0;strokeColor=#ff0000;fontColor=#000000;rounded=1;arcSize=40;" vertex="1" parent="1">
          <mxGeometry x="843.75" y="190" width="155" height="65" as="geometry" />
        </mxCell>
        <mxCell id="EC653Ei61_t5FoVVHQ31-61" value="&lt;font style=&quot;font-size: 20px&quot;&gt;增加库存&lt;/font&gt;" style="text;html=1;align=center;verticalAlign=middle;resizable=0;points=[];autosize=1;strokeColor=none;fillColor=none;fontSize=14;fontColor=none;" vertex="1" parent="1">
          <mxGeometry x="1080" y="325" width="100" height="30" as="geometry" />
        </mxCell>
        <mxCell id="EC653Ei61_t5FoVVHQ31-75" style="edgeStyle=orthogonalEdgeStyle;rounded=0;orthogonalLoop=1;jettySize=auto;html=1;entryX=1;entryY=0.5;entryDx=0;entryDy=0;fontSize=14;fontColor=none;" edge="1" parent="1" source="EC653Ei61_t5FoVVHQ31-63" target="EC653Ei61_t5FoVVHQ31-15">
          <mxGeometry relative="1" as="geometry">
            <Array as="points">
              <mxPoint x="211" y="1075" />
            </Array>
          </mxGeometry>
        </mxCell>
        <mxCell id="EC653Ei61_t5FoVVHQ31-63" value="&lt;font style=&quot;font-size: 20px&quot;&gt;判断订单&lt;br&gt;是否完成&lt;/font&gt;" style="rhombus;whiteSpace=wrap;html=1;fontSize=20;fillColor=#ffffc0;strokeColor=#ff0000;fontColor=#000000;rounded=1;arcSize=40;" vertex="1" parent="1">
          <mxGeometry x="137.19" y="865" width="148.12" height="115" as="geometry" />
        </mxCell>
        <mxCell id="EC653Ei61_t5FoVVHQ31-67" value="&lt;font style=&quot;font-size: 20px&quot;&gt;是&lt;/font&gt;" style="text;html=1;align=center;verticalAlign=middle;resizable=0;points=[];autosize=1;strokeColor=none;fillColor=none;fontSize=14;fontColor=none;" vertex="1" parent="1">
          <mxGeometry x="175" y="1005" width="40" height="30" as="geometry" />
        </mxCell>
        <mxCell id="EC653Ei61_t5FoVVHQ31-76" value="&lt;font style=&quot;font-size: 17px&quot;&gt;订单模块&lt;/font&gt;" style="text;html=1;strokeColor=#b85450;fillColor=#f8cecc;align=center;verticalAlign=middle;whiteSpace=wrap;rounded=0;fontSize=14;" vertex="1" parent="1">
          <mxGeometry x="165" y="110" width="85" height="30" as="geometry" />
        </mxCell>
        <mxCell id="EC653Ei61_t5FoVVHQ31-77" value="&lt;font style=&quot;font-size: 17px&quot;&gt;预约模块&lt;/font&gt;" style="text;html=1;strokeColor=#b85450;fillColor=#f8cecc;align=center;verticalAlign=middle;whiteSpace=wrap;rounded=0;fontSize=14;" vertex="1" parent="1">
          <mxGeometry x="410" y="110" width="85" height="30" as="geometry" />
        </mxCell>
        <mxCell id="EC653Ei61_t5FoVVHQ31-78" value="&lt;font style=&quot;font-size: 17px&quot;&gt;验收模块&lt;/font&gt;" style="text;html=1;strokeColor=#b85450;fillColor=#f8cecc;align=center;verticalAlign=middle;whiteSpace=wrap;rounded=0;fontSize=14;" vertex="1" parent="1">
          <mxGeometry x="615" y="110" width="85" height="30" as="geometry" />
        </mxCell>
        <mxCell id="EC653Ei61_t5FoVVHQ31-79" value="&lt;font style=&quot;font-size: 17px&quot;&gt;上架模块&lt;/font&gt;" style="text;html=1;strokeColor=#b85450;fillColor=#f8cecc;align=center;verticalAlign=middle;whiteSpace=wrap;rounded=0;fontSize=14;" vertex="1" parent="1">
          <mxGeometry x="878.75" y="110" width="85" height="30" as="geometry" />
        </mxCell>
        <mxCell id="EC653Ei61_t5FoVVHQ31-80" value="&lt;font style=&quot;font-size: 17px&quot;&gt;库存模块&lt;/font&gt;" style="text;html=1;strokeColor=#b85450;fillColor=#f8cecc;align=center;verticalAlign=middle;whiteSpace=wrap;rounded=0;fontSize=14;" vertex="1" parent="1">
          <mxGeometry x="1228.75" y="110" width="85" height="30" as="geometry" />
        </mxCell>
        <mxCell id="EC653Ei61_t5FoVVHQ31-91" value="" style="edgeStyle=orthogonalEdgeStyle;rounded=0;orthogonalLoop=1;jettySize=auto;html=1;fontSize=20;fontColor=none;" edge="1" parent="1" source="EC653Ei61_t5FoVVHQ31-87" target="EC653Ei61_t5FoVVHQ31-90">
          <mxGeometry relative="1" as="geometry" />
        </mxCell>
        <mxCell id="EC653Ei61_t5FoVVHQ31-87" value="&lt;font&gt;&lt;font style=&quot;font-size: 20px&quot;&gt;合并库存&lt;/font&gt;&lt;br&gt;&lt;/font&gt;" style="rounded=1;whiteSpace=wrap;html=1;arcSize=40;fontColor=#000000;fillColor=#ffffc0;strokeColor=#ff0000;fontSize=20;" vertex="1" parent="1">
          <mxGeometry x="1190" y="365" width="162.5" height="70" as="geometry" />
        </mxCell>
        <mxCell id="EC653Ei61_t5FoVVHQ31-93" value="" style="edgeStyle=orthogonalEdgeStyle;rounded=0;orthogonalLoop=1;jettySize=auto;html=1;fontSize=20;fontColor=none;" edge="1" parent="1" source="EC653Ei61_t5FoVVHQ31-90" target="EC653Ei61_t5FoVVHQ31-92">
          <mxGeometry relative="1" as="geometry" />
        </mxCell>
        <mxCell id="EC653Ei61_t5FoVVHQ31-90" value="&lt;font&gt;&lt;font style=&quot;font-size: 20px&quot;&gt;记录库存流水&lt;/font&gt;&lt;br&gt;&lt;/font&gt;" style="rounded=1;whiteSpace=wrap;html=1;arcSize=40;fontColor=#000000;fillColor=#ffffc0;strokeColor=#ff0000;fontSize=20;" vertex="1" parent="1">
          <mxGeometry x="1190" y="515" width="162.5" height="70" as="geometry" />
        </mxCell>
        <mxCell id="EC653Ei61_t5FoVVHQ31-92" value="&lt;font&gt;&lt;font style=&quot;font-size: 20px&quot;&gt;更新汇总库存&lt;/font&gt;&lt;br&gt;&lt;/font&gt;" style="rounded=1;whiteSpace=wrap;html=1;arcSize=40;fontColor=#000000;fillColor=#ffffc0;strokeColor=#ff0000;fontSize=20;" vertex="1" parent="1">
          <mxGeometry x="1190" y="665" width="162.5" height="70" as="geometry" />
        </mxCell>
      </root>
    </mxGraphModel>
  </diagram>
</mxfile>
